<mxfile host="app.diagrams.net" agent="Mozilla/5.0 (Windows NT 10.0; Win64; x64) AppleWebKit/537.36 (KHTML, like Gecko) Chrome/129.0.0.0 Safari/537.36" version="24.7.16">
  <diagram name="Page-1" id="ltxTjbDsIKDXTP8MXprU">
    <mxGraphModel dx="880" dy="460" grid="1" gridSize="10" guides="1" tooltips="1" connect="1" arrows="1" fold="1" page="1" pageScale="1" pageWidth="850" pageHeight="1100" math="0" shadow="0">
      <root>
        <mxCell id="0" />
        <mxCell id="1" parent="0" />
        <mxCell id="IX7F5I1TnNcRq7RptcKg-6" value="" style="edgeStyle=orthogonalEdgeStyle;rounded=0;orthogonalLoop=1;jettySize=auto;html=1;" parent="1" source="IX7F5I1TnNcRq7RptcKg-4" target="IX7F5I1TnNcRq7RptcKg-5" edge="1">
          <mxGeometry relative="1" as="geometry" />
        </mxCell>
        <mxCell id="IX7F5I1TnNcRq7RptcKg-4" value="Leave Application&lt;div&gt;&lt;br&gt;&lt;/div&gt;" style="rounded=0;whiteSpace=wrap;html=1;" parent="1" vertex="1">
          <mxGeometry x="25" y="570" width="120" height="60" as="geometry" />
        </mxCell>
        <mxCell id="IX7F5I1TnNcRq7RptcKg-9" value="" style="edgeStyle=orthogonalEdgeStyle;rounded=0;orthogonalLoop=1;jettySize=auto;html=1;" parent="1" source="IX7F5I1TnNcRq7RptcKg-5" target="IX7F5I1TnNcRq7RptcKg-8" edge="1">
          <mxGeometry relative="1" as="geometry" />
        </mxCell>
        <mxCell id="IX7F5I1TnNcRq7RptcKg-5" value="Manager Approval" style="whiteSpace=wrap;html=1;rounded=0;" parent="1" vertex="1">
          <mxGeometry x="280" y="570" width="120" height="60" as="geometry" />
        </mxCell>
        <mxCell id="IX7F5I1TnNcRq7RptcKg-7" value="&lt;span style=&quot;color: rgb(0, 0, 0); font-family: Helvetica; font-size: 12px; font-style: normal; font-variant-ligatures: normal; font-variant-caps: normal; font-weight: 400; letter-spacing: normal; orphans: 2; text-align: center; text-indent: 0px; text-transform: none; widows: 2; word-spacing: 0px; -webkit-text-stroke-width: 0px; white-space: normal; background-color: rgb(251, 251, 251); text-decoration-thickness: initial; text-decoration-style: initial; text-decoration-color: initial; display: inline !important; float: none;&quot;&gt;(apply leave application)&lt;/span&gt;" style="text;whiteSpace=wrap;html=1;" parent="1" vertex="1">
          <mxGeometry x="145" y="570" width="160" height="40" as="geometry" />
        </mxCell>
        <mxCell id="IX7F5I1TnNcRq7RptcKg-11" value="" style="edgeStyle=orthogonalEdgeStyle;rounded=0;orthogonalLoop=1;jettySize=auto;html=1;" parent="1" source="IX7F5I1TnNcRq7RptcKg-8" target="IX7F5I1TnNcRq7RptcKg-10" edge="1">
          <mxGeometry relative="1" as="geometry" />
        </mxCell>
        <mxCell id="IX7F5I1TnNcRq7RptcKg-8" value="Hr Approval" style="whiteSpace=wrap;html=1;rounded=0;" parent="1" vertex="1">
          <mxGeometry x="505" y="570" width="120" height="60" as="geometry" />
        </mxCell>
        <mxCell id="IX7F5I1TnNcRq7RptcKg-10" value="Leave Application&lt;div&gt;Status changed to&amp;nbsp;&lt;/div&gt;&lt;div&gt;(Approved)&lt;/div&gt;" style="whiteSpace=wrap;html=1;rounded=0;" parent="1" vertex="1">
          <mxGeometry x="705" y="570" width="120" height="60" as="geometry" />
        </mxCell>
        <mxCell id="IX7F5I1TnNcRq7RptcKg-14" value="" style="edgeStyle=orthogonalEdgeStyle;rounded=0;orthogonalLoop=1;jettySize=auto;html=1;" parent="1" source="IX7F5I1TnNcRq7RptcKg-12" target="IX7F5I1TnNcRq7RptcKg-13" edge="1">
          <mxGeometry relative="1" as="geometry" />
        </mxCell>
        <mxCell id="IX7F5I1TnNcRq7RptcKg-12" value="Employee creattion" style="rounded=0;whiteSpace=wrap;html=1;" parent="1" vertex="1">
          <mxGeometry x="50" y="10" width="120" height="60" as="geometry" />
        </mxCell>
        <mxCell id="IX7F5I1TnNcRq7RptcKg-16" value="" style="edgeStyle=orthogonalEdgeStyle;rounded=0;orthogonalLoop=1;jettySize=auto;html=1;" parent="1" source="IX7F5I1TnNcRq7RptcKg-13" target="IX7F5I1TnNcRq7RptcKg-15" edge="1">
          <mxGeometry relative="1" as="geometry" />
        </mxCell>
        <mxCell id="IX7F5I1TnNcRq7RptcKg-13" value="User Creation" style="whiteSpace=wrap;html=1;rounded=0;" parent="1" vertex="1">
          <mxGeometry x="250" y="10" width="120" height="60" as="geometry" />
        </mxCell>
        <mxCell id="IX7F5I1TnNcRq7RptcKg-18" value="" style="edgeStyle=orthogonalEdgeStyle;rounded=0;orthogonalLoop=1;jettySize=auto;html=1;" parent="1" source="IX7F5I1TnNcRq7RptcKg-15" target="IX7F5I1TnNcRq7RptcKg-17" edge="1">
          <mxGeometry relative="1" as="geometry" />
        </mxCell>
        <mxCell id="IX7F5I1TnNcRq7RptcKg-15" value="Role permission Setup" style="whiteSpace=wrap;html=1;rounded=0;" parent="1" vertex="1">
          <mxGeometry x="450" y="10" width="120" height="60" as="geometry" />
        </mxCell>
        <mxCell id="IX7F5I1TnNcRq7RptcKg-17" value="User Permission Setup" style="whiteSpace=wrap;html=1;rounded=0;" parent="1" vertex="1">
          <mxGeometry x="650" y="10" width="120" height="60" as="geometry" />
        </mxCell>
        <mxCell id="IX7F5I1TnNcRq7RptcKg-23" value="" style="edgeStyle=orthogonalEdgeStyle;rounded=0;orthogonalLoop=1;jettySize=auto;html=1;" parent="1" source="IX7F5I1TnNcRq7RptcKg-21" target="IX7F5I1TnNcRq7RptcKg-22" edge="1">
          <mxGeometry relative="1" as="geometry" />
        </mxCell>
        <mxCell id="IX7F5I1TnNcRq7RptcKg-21" value="Shift Type" style="rounded=0;whiteSpace=wrap;html=1;" parent="1" vertex="1">
          <mxGeometry x="50" y="170" width="120" height="60" as="geometry" />
        </mxCell>
        <mxCell id="IX7F5I1TnNcRq7RptcKg-22" value="Shift Allocation" style="whiteSpace=wrap;html=1;rounded=0;" parent="1" vertex="1">
          <mxGeometry x="250" y="170" width="120" height="60" as="geometry" />
        </mxCell>
        <mxCell id="IX7F5I1TnNcRq7RptcKg-28" value="" style="edgeStyle=orthogonalEdgeStyle;rounded=0;orthogonalLoop=1;jettySize=auto;html=1;" parent="1" source="IX7F5I1TnNcRq7RptcKg-26" target="IX7F5I1TnNcRq7RptcKg-27" edge="1">
          <mxGeometry relative="1" as="geometry" />
        </mxCell>
        <mxCell id="IX7F5I1TnNcRq7RptcKg-26" value="Leave Type" style="rounded=0;whiteSpace=wrap;html=1;" parent="1" vertex="1">
          <mxGeometry x="50" y="330" width="120" height="60" as="geometry" />
        </mxCell>
        <mxCell id="IX7F5I1TnNcRq7RptcKg-30" value="" style="edgeStyle=orthogonalEdgeStyle;rounded=0;orthogonalLoop=1;jettySize=auto;html=1;" parent="1" source="IX7F5I1TnNcRq7RptcKg-27" target="IX7F5I1TnNcRq7RptcKg-29" edge="1">
          <mxGeometry relative="1" as="geometry" />
        </mxCell>
        <mxCell id="IX7F5I1TnNcRq7RptcKg-27" value="Leave Policy" style="whiteSpace=wrap;html=1;rounded=0;" parent="1" vertex="1">
          <mxGeometry x="250" y="330" width="120" height="60" as="geometry" />
        </mxCell>
        <mxCell id="IX7F5I1TnNcRq7RptcKg-29" value="Leave Policy Assignment" style="whiteSpace=wrap;html=1;rounded=0;" parent="1" vertex="1">
          <mxGeometry x="450" y="330" width="120" height="60" as="geometry" />
        </mxCell>
        <mxCell id="IX7F5I1TnNcRq7RptcKg-32" style="edgeStyle=orthogonalEdgeStyle;rounded=0;orthogonalLoop=1;jettySize=auto;html=1;entryX=0.5;entryY=1;entryDx=0;entryDy=0;" parent="1" source="IX7F5I1TnNcRq7RptcKg-31" target="IX7F5I1TnNcRq7RptcKg-29" edge="1">
          <mxGeometry relative="1" as="geometry" />
        </mxCell>
        <mxCell id="IX7F5I1TnNcRq7RptcKg-31" value="Holiday list" style="rounded=0;whiteSpace=wrap;html=1;" parent="1" vertex="1">
          <mxGeometry x="250" y="430" width="120" height="60" as="geometry" />
        </mxCell>
        <mxCell id="IX7F5I1TnNcRq7RptcKg-34" style="edgeStyle=orthogonalEdgeStyle;rounded=0;orthogonalLoop=1;jettySize=auto;html=1;entryX=0;entryY=0.5;entryDx=0;entryDy=0;" parent="1" source="IX7F5I1TnNcRq7RptcKg-33" target="IX7F5I1TnNcRq7RptcKg-31" edge="1">
          <mxGeometry relative="1" as="geometry" />
        </mxCell>
        <mxCell id="IX7F5I1TnNcRq7RptcKg-33" value="Company" style="rounded=0;whiteSpace=wrap;html=1;" parent="1" vertex="1">
          <mxGeometry x="50" y="430" width="120" height="60" as="geometry" />
        </mxCell>
        <mxCell id="IX7F5I1TnNcRq7RptcKg-37" value="" style="edgeStyle=orthogonalEdgeStyle;rounded=0;orthogonalLoop=1;jettySize=auto;html=1;" parent="1" source="IX7F5I1TnNcRq7RptcKg-35" target="IX7F5I1TnNcRq7RptcKg-36" edge="1">
          <mxGeometry relative="1" as="geometry" />
        </mxCell>
        <mxCell id="IX7F5I1TnNcRq7RptcKg-35" value="Salary component" style="rounded=0;whiteSpace=wrap;html=1;" parent="1" vertex="1">
          <mxGeometry x="40" y="850" width="120" height="60" as="geometry" />
        </mxCell>
        <mxCell id="IX7F5I1TnNcRq7RptcKg-39" value="" style="edgeStyle=orthogonalEdgeStyle;rounded=0;orthogonalLoop=1;jettySize=auto;html=1;" parent="1" source="IX7F5I1TnNcRq7RptcKg-36" target="IX7F5I1TnNcRq7RptcKg-38" edge="1">
          <mxGeometry relative="1" as="geometry" />
        </mxCell>
        <mxCell id="IX7F5I1TnNcRq7RptcKg-36" value="Salary Structure" style="whiteSpace=wrap;html=1;rounded=0;" parent="1" vertex="1">
          <mxGeometry x="240" y="850" width="120" height="60" as="geometry" />
        </mxCell>
        <mxCell id="IX7F5I1TnNcRq7RptcKg-41" value="" style="edgeStyle=orthogonalEdgeStyle;rounded=0;orthogonalLoop=1;jettySize=auto;html=1;" parent="1" source="IX7F5I1TnNcRq7RptcKg-38" target="IX7F5I1TnNcRq7RptcKg-40" edge="1">
          <mxGeometry relative="1" as="geometry" />
        </mxCell>
        <mxCell id="IX7F5I1TnNcRq7RptcKg-38" value="Salary Structure Assignment" style="whiteSpace=wrap;html=1;rounded=0;" parent="1" vertex="1">
          <mxGeometry x="440" y="850" width="120" height="60" as="geometry" />
        </mxCell>
        <mxCell id="IX7F5I1TnNcRq7RptcKg-40" value="Payroll Entry" style="whiteSpace=wrap;html=1;rounded=0;" parent="1" vertex="1">
          <mxGeometry x="640" y="850" width="120" height="60" as="geometry" />
        </mxCell>
        <mxCell id="IX7F5I1TnNcRq7RptcKg-43" style="edgeStyle=orthogonalEdgeStyle;rounded=0;orthogonalLoop=1;jettySize=auto;html=1;entryX=0.5;entryY=1;entryDx=0;entryDy=0;" parent="1" source="IX7F5I1TnNcRq7RptcKg-42" target="IX7F5I1TnNcRq7RptcKg-38" edge="1">
          <mxGeometry relative="1" as="geometry" />
        </mxCell>
        <mxCell id="IX7F5I1TnNcRq7RptcKg-42" value="Income tax Slab" style="rounded=0;whiteSpace=wrap;html=1;" parent="1" vertex="1">
          <mxGeometry x="240" y="940" width="120" height="60" as="geometry" />
        </mxCell>
        <mxCell id="IX7F5I1TnNcRq7RptcKg-45" style="edgeStyle=orthogonalEdgeStyle;rounded=0;orthogonalLoop=1;jettySize=auto;html=1;entryX=0.5;entryY=0;entryDx=0;entryDy=0;" parent="1" source="IX7F5I1TnNcRq7RptcKg-44" target="IX7F5I1TnNcRq7RptcKg-38" edge="1">
          <mxGeometry relative="1" as="geometry" />
        </mxCell>
        <mxCell id="IX7F5I1TnNcRq7RptcKg-44" value="Account" style="rounded=0;whiteSpace=wrap;html=1;" parent="1" vertex="1">
          <mxGeometry x="240" y="770" width="120" height="60" as="geometry" />
        </mxCell>
      </root>
    </mxGraphModel>
  </diagram>
</mxfile>
